<?xml version="1.0" standalone="no"?><!DOCTYPE svg PUBLIC "-//W3C//DTD SVG 1.1//EN" "http://www.w3.org/Graphics/SVG/1.1/DTD/svg11.dtd"><svg t="1530167811121" class="icon" style="" viewBox="0 0 1024 1024" version="1.1" xmlns="http://www.w3.org/2000/svg" p-id="6999" xmlns:xlink="http://www.w3.org/1999/xlink" width="16" height="16"><defs><style type="text/css"></style></defs><path d="M512 960C264.6 960 64 759.4 64 512S264.6 64 512 64s448 200.6 448 448-200.6 448-448 448z m390.6-420H520.3L241.7 795.4C312 862.5 407.1 904 512 904c207 0 376.2-160.6 390.6-364zM120 512c0 91.4 31.6 175.3 84 242l280-256.6v-376C280.6 135.8 120 305 120 512z m420-390.6V484h362.6C888.8 289.9 734.1 135.1 540 121.4z m0 0" p-id="7000"></path></svg>