<?xml version="1.0" standalone="no"?><!DOCTYPE svg PUBLIC "-//W3C//DTD SVG 1.1//EN" "http://www.w3.org/Graphics/SVG/1.1/DTD/svg11.dtd"><svg t="1530586489970" class="icon" style="" viewBox="0 0 1024 1024" version="1.1" xmlns="http://www.w3.org/2000/svg" p-id="2956" xmlns:xlink="http://www.w3.org/1999/xlink" width="16" height="16"><defs><style type="text/css"></style></defs><path d="M986.624 770.56c-8.192-3.584-81.92-33.792-162.304-65.024l-2.56-1.024 2.048-2.048c71.68-77.824 111.104-178.176 111.104-283.136 0-230.912-187.904-418.816-419.328-418.816C284.672 0 96.768 187.904 96.768 418.816c0 18.432 1.024 36.864 3.584 54.784 2.048 16.896 16.896 30.208 34.816 30.208h4.096c18.944-2.56 32.256-19.968 29.696-38.912-2.048-14.848-3.072-30.208-3.072-45.568 0-193.024 157.184-349.696 349.696-349.696 193.024 0 350.208 157.184 350.208 349.696 0 97.28-39.424 187.904-110.592 254.976-0.512 0-0.512 0.512-0.512 1.024-0.512 0.512-0.512 1.024-1.024 1.536l-1.024 1.024-1.024-0.512c-56.832-20.992-92.672-32.768-107.008-34.816-3.584-0.512-7.168-1.024-10.752-1.024-23.552 0-45.056 12.288-59.392 33.28-13.312 19.968-16.896 43.008-9.216 62.464 4.096 10.752 19.456 32.256 45.056 65.024l2.56 3.072h-4.096c-53.248 0-134.656-7.168-221.184-40.96-36.352-13.824-79.872-60.416-118.784-101.888-54.784-57.856-105.984-112.64-161.792-112.64-20.48 0-39.936 7.68-56.32 22.016-20.48 17.92-39.424 54.272-13.312 122.88 48.64 128 237.568 325.12 389.12 325.12h547.328c18.944 0 34.816-15.36 34.816-34.816v-183.296c-0.512-13.824-9.216-26.112-22.016-31.232z m-48.128 180.224H425.984c-112.64 0-284.672-175.104-324.608-280.576-11.776-31.232-7.68-44.544-5.632-46.592 5.12-4.608 8.704-4.608 10.24-4.608 25.6 0 75.264 52.736 111.104 91.136 46.08 48.64 93.184 99.328 144.384 118.784 97.28 37.376 187.904 45.568 247.296 45.568 47.616 0 77.824-5.12 78.336-5.12 12.288-2.048 22.528-10.752 26.624-22.016 4.096-11.776 2.048-24.576-6.144-34.304-29.184-34.304-66.56-81.92-77.312-97.792l-0.512-1.024 0.512-0.512-5.12-4.096 7.68 1.024c25.6 4.096 175.616 61.952 304.128 114.176l1.024 0.512v125.44z" p-id="2957"></path><path d="M516.096 624.128c-18.944 0-34.816-15.36-34.816-34.816V512H406.528c-18.944 0-34.816-15.36-34.816-34.816 0-18.944 15.36-34.816 34.816-34.816H481.28v-40.96H406.528c-18.944 0-34.816-15.36-34.816-34.816 0-18.944 15.36-34.816 34.816-34.816h61.44L381.44 247.296c-13.312-13.312-13.312-35.328 0-49.152 6.656-6.656 15.36-10.24 24.576-10.24 9.216 0 17.92 3.584 24.576 10.24l85.504 84.992L604.16 198.144c6.656-6.144 14.848-9.728 24.064-9.728 9.216 0 18.432 3.584 25.088 10.752 13.312 13.824 12.8 35.84-1.024 49.152L563.2 334.336h62.464c18.944 0 34.816 15.36 34.816 34.816 0 18.944-15.36 34.816-34.816 34.816h-75.776v40.96h75.776c18.944 0 34.816 15.36 34.816 34.816 0 18.944-15.36 34.816-34.816 34.816h-75.776v77.312c0.512 16.896-14.848 32.256-33.792 32.256z" p-id="2958"></path></svg>