<?xml version="1.0" standalone="no"?><!DOCTYPE svg PUBLIC "-//W3C//DTD SVG 1.1//EN" "http://www.w3.org/Graphics/SVG/1.1/DTD/svg11.dtd"><svg t="1534839337800" class="icon" style="" viewBox="0 0 1024 1024" version="1.1" xmlns="http://www.w3.org/2000/svg" p-id="2478" xmlns:xlink="http://www.w3.org/1999/xlink" width="16" height="16"><defs><style type="text/css"></style></defs><path d="M22.92495195 484.15023418c-0.6452766 1.29188091-1.77650221 2.4217788-2.26112351 3.71365969-11.30428991 23.57782244-7.59063019 52.64580686 12.43418779 71.54072697l456.37386114 431.66614082c24.86970339 23.57782244 64.11207979 22.44792455 87.68990225-2.42177884s22.44792455-64.11207979-2.4217788-87.68990227l-409.54218222-387.41822371 407.92633528-393.07036864c24.70772035-23.74113322 25.35432468-62.98218189 1.61451925-87.68990224-12.11154953-12.59617083-28.42270781-19.05424766-44.57188314-19.05557541-15.50257096 0-31.00646965 5.81280022-42.95603616 17.44238392l-452.1755801 435.86442178c-0.8072596 0.8072596-1.1298979 2.09914055-2.09914048 2.90640013-0.64660432 0.64660432-1.29188091 1.1298979-2.09914054 1.77650221-3.71365975 3.71365975-5.49016195 8.23590678-7.91194076 12.43418784v0zM22.92495195 484.15023418z" p-id="2479"></path></svg>