<?xml version="1.0" standalone="no"?><!DOCTYPE svg PUBLIC "-//W3C//DTD SVG 1.1//EN" "http://www.w3.org/Graphics/SVG/1.1/DTD/svg11.dtd"><svg t="1530167480691" class="icon" style="" viewBox="0 0 1024 1024" version="1.1" xmlns="http://www.w3.org/2000/svg" p-id="5422" xmlns:xlink="http://www.w3.org/1999/xlink" width="16" height="16"><defs><style type="text/css"></style></defs><path d="M619.1 542.8c-2.5-8.9-6-17.4-10.6-25.4 5.1-6.9 22.9-32.8 10.1-45.6l-6.6-6.9c-10.9-10.9-38.8 6.1-45.6 10.6-8.1-4.6-16.7-8.2-25.7-10.6-1.5-8.7-7.8-39-25.8-39h-7.2c-15.4 0-24.3 31.3-26.3 39.2-8.9 2.5-17.4 6.1-25.4 10.7-6.2-4.6-33-23.1-46-10.1l-6.9 5.8c-11.4 11.4 7.5 41.4 11 46.6-4.4 7.9-7.9 16.3-10.3 25-7.5 1.2-39.7 7.4-39.7 25.9v7.2c0 16.1 33.8 25 39.9 26.5 2.4 8.6 5.9 17 10.3 24.8-3.6 5.7-21.8 35.5-10.5 46.8l6.6 5.5c14.8 14.8 45.8-9.5 45.8-9.5l-1.4-1.5c8.3 4.9 17.2 8.7 26.5 11.3 1.5 6.3 10.5 39.8 26.4 39.8h7.2c21 0 26.2-39.1 26.2-39.1h-1.9c9.4-2.4 18.4-6 26.9-10.8 6.6 4.4 34 21.5 44.9 10.6l7.3-7.3c14.6-14.6-9.2-44.5-9.8-45.4 4.6-8 8.2-16.5 10.6-25.4 8.2-2.1 39-10.9 39-26.2v-7.2c-0.1-20.5-36.8-26-39-26.3zM511 632.3c-32.9 0-59.5-26.6-59.5-59.5s26.6-59.5 59.5-59.5c32.8 0 59.5 26.6 59.5 59.5s-26.6 59.5-59.5 59.5z m237.3-421.7v-38.8c0-38.2-24.1-61-64.4-61-40.3 0-64.4 22.8-64.4 61v38.8h-43.7v-38.8c0-38.2-24.1-61-64.4-61-40.3 0-64.4 22.8-64.4 61v38.8h-43.7v-38.8c0-38.2-24.1-61-64.4-61-40.3 0-64.4 22.8-64.4 61v38.8h-74v620.9h621V210.6h-73.2zM654 171.8c0-18.8 8.6-26.5 29.9-26.5 21.3 0 29.9 7.6 29.9 26.5v103.7c0 18.8-8.6 26.5-29.9 26.5-21.3 0-29.9-7.6-29.9-26.5V171.8z m-172.5 0c0-18.8 8.6-26.5 29.9-26.5 21.3 0 29.9 7.6 29.9 26.5v103.7c0 18.8-8.6 26.5-29.9 26.5-21.3 0-29.9-7.6-29.9-26.5V171.8z m-172.5 0c0-18.8 8.6-26.5 29.9-26.5 21.3 0 30 7.6 30 26.5v103.7c0 18.8-8.7 26.5-30 26.5s-29.9-7.6-29.9-26.5V171.8z m460.7 608H252.3V348.6h517.5l-0.1 431.2z" p-id="5423"></path></svg>