<?xml version="1.0" standalone="no"?><!DOCTYPE svg PUBLIC "-//W3C//DTD SVG 1.1//EN" "http://www.w3.org/Graphics/SVG/1.1/DTD/svg11.dtd"><svg t="1537870438731" class="icon" style="" viewBox="0 0 1024 1024" version="1.1" xmlns="http://www.w3.org/2000/svg" p-id="6824" xmlns:xlink="http://www.w3.org/1999/xlink" width="32" height="32"><defs><style type="text/css"></style></defs><path d="M409.770667 42.666667h-307.2c-37.546667 0-68.266667 30.72-68.266667 68.266666v802.133334c0 37.546667 30.72 68.266667 68.266667 68.266666h307.2a68.266667 68.266667 0 0 0 68.266666-68.266666v-802.133334a68.266667 68.266667 0 0 0-68.266666-68.266666z m-103.5264 782.933333h-102.4c-18.773333 0-34.133333-15.36-34.133334-34.133333s15.36-34.133333 34.133334-34.133334h102.4c18.773333 0 34.133333 15.36 34.133333 34.133334s-15.36 34.133333-34.133333 34.133333z m0-187.733333h-102.4c-18.773333 0-34.133333-15.36-34.133334-34.133334s15.36-34.133333 34.133334-34.133333h102.4c18.773333 0 34.133333 15.36 34.133333 34.133333s-15.36 34.133333-34.133333 34.133334z m0-187.733334h-102.4c-18.773333 0-34.133333-15.36-34.133334-34.133333s15.36-34.133333 34.133334-34.133333h102.4c18.773333 0 34.133333 15.36 34.133333 34.133333s-15.36 34.133333-34.133333 34.133333z m0-187.733333h-102.4c-18.773333 0-34.133333-15.36-34.133334-34.133333s15.36-34.133333 34.133334-34.133334h102.4c18.773333 0 34.133333 15.36 34.133333 34.133334s-15.36 34.133333-34.133333 34.133333zM921.429333 401.066667h-307.2a68.266667 68.266667 0 0 0-68.266666 68.266666v443.733334a68.266667 68.266667 0 0 0 68.266666 68.266666h307.2c37.546667 0 68.266667-30.72 68.266667-68.266666v-443.733334c0-37.546667-30.72-68.266667-68.266667-68.266666z m-103.185066 424.533333h-102.4c-18.773333 0-34.133333-15.36-34.133334-34.133333s15.36-34.133333 34.133334-34.133334h102.4c18.773333 0 34.133333 15.36 34.133333 34.133334s-15.36 34.133333-34.133333 34.133333z m0-187.733333h-102.4c-18.773333 0-34.133333-15.36-34.133334-34.133334s15.36-34.133333 34.133334-34.133333h102.4c18.773333 0 34.133333 15.36 34.133333 34.133333s-15.36 34.133333-34.133333 34.133334z" fill="#FFFFFF" p-id="6825"></path></svg>