<?xml version="1.0" standalone="no"?><!DOCTYPE svg PUBLIC "-//W3C//DTD SVG 1.1//EN" "http://www.w3.org/Graphics/SVG/1.1/DTD/svg11.dtd"><svg t="1528705774256" class="icon" style="" viewBox="0 0 1024 1024" version="1.1" xmlns="http://www.w3.org/2000/svg" p-id="2365" xmlns:xlink="http://www.w3.org/1999/xlink" width="16" height="16"><defs><style type="text/css"></style></defs><path d="M853.198915 921.438257 853.198915 921.438257l0 68.237535c0 18.83423-15.245663 34.125863-34.102878 34.125863l-102.346209 0c-18.851219 0-34.136855-15.291632-34.136855-34.125863L682.612972 921.438257 341.40711 921.438257l0 68.237535c0 18.83423-15.268648 34.125863-34.122265 34.125863l-102.366795 0c-18.833631 0-34.119267-15.291632-34.119267-34.125863L170.798782 921.438257l0 0c-37.687448 0-68.24453-30.561279-68.24453-68.250526L102.554252 136.662735c0-37.686848 64.676549-68.24453 102.363797-68.24453 0 0 137.435019-68.221546 307.08-68.221546 171.532301 0 341.200866 68.221546 341.200866 68.221546 37.706435 0 68.243531 30.557682 68.243531 68.24453l0 716.524796C921.464431 890.853993 890.90515 921.438257 853.198915 921.438257zM256.114139 819.050876c47.115855 0 85.292971-38.183112 85.292971-85.297968 0-47.118853-38.180514-85.295969-85.292971-85.295969-47.115456 0-85.29537 38.176916-85.29537 85.295969C170.818769 780.867964 208.998683 819.050876 256.114139 819.050876zM648.510094 68.398218 375.532373 68.398218c-18.836629 0-34.122665 15.285636-34.122665 34.122265 0 18.853617 15.289034 34.119267 34.122665 34.119267l272.977721 0c18.851219 0 34.102878-15.26565 34.102878-34.119267C682.612972 83.707238 667.361313 68.398218 648.510094 68.398218zM853.198915 273.151995c0-18.854217-15.245663-34.122265-34.102878-34.122265l-85.289973 0L580.260567 239.02973 204.938036 239.02973c-18.833631 0-34.119267 15.268048-34.119267 34.122265l0 204.713204c0 18.833631 15.26565 34.119867 34.119267 34.119867L580.260567 511.985066l153.545496 0 85.289973 0c18.857215 0 34.102878-15.289034 34.102878-34.119867L853.198915 273.151995zM767.902746 648.456938c-47.113857 0-85.289973 38.176916-85.289973 85.295969 0 47.114856 38.176117 85.297968 85.289973 85.297968 47.118054 0 85.295969-38.183112 85.295969-85.297968C853.198915 686.634054 815.0208 648.456938 767.902746 648.456938z" p-id="2366"></path></svg>