<?xml version="1.0" standalone="no"?><!DOCTYPE svg PUBLIC "-//W3C//DTD SVG 1.1//EN" "http://www.w3.org/Graphics/SVG/1.1/DTD/svg11.dtd"><svg t="1539260022604" class="icon" style="" viewBox="0 0 1024 1024" version="1.1" xmlns="http://www.w3.org/2000/svg" p-id="2693" xmlns:xlink="http://www.w3.org/1999/xlink" width="128" height="128"><defs><style type="text/css"></style></defs><path d="M253.08436749 511.79890047c0-0.00471328 0-0.00942654 0-0.01256871 0-14.35504936 6.01570362-27.30397316 15.66376732-36.46499897l417.30350009-394.77878271c8.98663481-8.50745238 21.1531558-13.7360399 34.53884263-13.737611 27.77372908 0 50.28744882 22.51371974 50.28744882 50.28744883 0 14.38647115-6.04084106 27.3621035-15.72503984 36.52784257l-378.79451302 358.27921976 378.77094668 358.56044487c9.68576987 9.19873197 15.71247113 22.17279322 15.71247111 36.55298001 0 13.37940246-5.21601881 25.53963909-13.72504226 34.56083788-19.08088809 20.0848146-50.95673316 20.98976244-71.06511412 1.98585777l-417.28150482-395.16055758c-9.67005896-9.18144998-15.68576258-22.13037379-15.68576259-36.48542314 0-0.03927725 0-0.08012558 0-0.11940284z" p-id="2694"></path></svg>