<?xml version="1.0" standalone="no"?><!DOCTYPE svg PUBLIC "-//W3C//DTD SVG 1.1//EN" "http://www.w3.org/Graphics/SVG/1.1/DTD/svg11.dtd"><svg t="1525230798044" class="icon" style="" viewBox="0 0 1024 1024" version="1.1" xmlns="http://www.w3.org/2000/svg" p-id="12435" xmlns:xlink="http://www.w3.org/1999/xlink" width="200" height="200"><defs><style type="text/css"></style></defs><path d="M756.79066 87.495211c-10.132057 0-18.356397 8.208858-18.356397 18.349516v812.303665c0 10.147539 8.22434 18.356397 18.356397 18.356397s18.323713-8.207138 18.323712-18.356397V105.844727c0-10.140658-8.193376-18.349516-18.323712-18.349516z m80.705529 0c-10.147539 0-18.356397 8.208858-18.356396 18.349516v812.303665a18.342635 18.342635 0 0 0 18.356396 18.356397c10.116575 0 18.323713-8.207138 18.323713-18.356397V105.844727c0-10.140658-8.207138-18.349516-18.323713-18.349516z m80.688327 0c-10.147539 0-18.356397 8.208858-18.356396 18.349516v812.303665a18.342635 18.342635 0 0 0 18.356396 18.356397c10.116575 0 18.323713-8.207138 18.323713-18.356397V105.844727c0-10.140658-8.207138-18.349516-18.323713-18.349516z m-618.117381 0H144.102272c-31.256277 0-56.60362 25.337022-56.60362 56.59502v735.800616c0 31.257997 25.345623 56.612221 56.60362 56.612221h155.964863c31.240795 0 56.595019-25.354225 56.595019-56.612221V144.091951c0-31.257997-25.354225-56.596739-56.595019-56.59674z m-18.95331 272.015617H163.064184a18.342635 18.342635 0 0 1-18.356397-18.356397c0-10.114854 8.207138-18.323713 18.356397-18.323712h118.049641c10.132057 0 18.340915 8.207138 18.340914 18.323712-0.00172 10.147539-8.210578 18.356397-18.340914 18.356397z m0-91.91444H163.064184c-10.147539 0-18.356397-8.208858-18.356397-18.340914 0-10.114854 8.207138-18.340915 18.356397-18.340915h118.049641c10.132057 0 18.340915 8.22434 18.340914 18.340915-0.00172 10.132057-8.210578 18.340915-18.340914 18.340914zM628.825709 87.495211H472.886649c-31.275199 0-56.612221 25.337022-56.612221 56.59502v735.800616c0 31.257997 25.337022 56.612221 56.612221 56.612221h155.93906c31.275199 0 56.610501-25.354225 56.610501-56.612221V144.091951c0-31.257997-25.335302-56.596739-56.610501-56.59674z m-18.937829 272.015617h-118.04792c-10.132057 0-18.356397-8.207138-18.356397-18.356397 0-10.114854 8.22606-18.323713 18.356397-18.323712h118.04792c10.147539 0 18.340915 8.207138 18.340915 18.323712 0 10.147539-8.191656 18.356397-18.340915 18.356397z m0-91.91444h-118.04792c-10.132057 0-18.356397-8.208858-18.356397-18.340914 0-10.114854 8.22606-18.340915 18.356397-18.340915h118.04792c10.147539 0 18.340915 8.22434 18.340915 18.340915 0 10.132057-8.191656 18.340915-18.340915 18.340914z" p-id="12436" fill="#ffffff"></path></svg>