<?xml version="1.0" standalone="no"?><!DOCTYPE svg PUBLIC "-//W3C//DTD SVG 1.1//EN" "http://www.w3.org/Graphics/SVG/1.1/DTD/svg11.dtd"><svg t="1530167999999" class="icon" style="" viewBox="0 0 1024 1024" version="1.1" xmlns="http://www.w3.org/2000/svg" p-id="8255" xmlns:xlink="http://www.w3.org/1999/xlink" width="16" height="16"><defs><style type="text/css"></style></defs><path d="M280.064 241.152c-1.024 0.512-1.536 1.024-2.56 1.536 3.072-2.048 3.072-2.048 2.56-1.536zM212.48 497.664l-0.512 0.512c-0.512 0.512-1.024 1.024-1.536 2.048 0 0 0 0.512-0.512 0.512 2.56-2.56 3.072-3.072 2.56-3.072zM430.592 797.696c-1.536 0-6.144 1.024 0 0z" p-id="8256"></path><path d="M923.136 523.264l-382.464-219.648v-56.32h156.672c18.944 0 31.232-12.288 31.232-31.232V102.912c0-18.944-12.288-31.232-31.232-31.232H508.928c-18.944 0-31.232 12.288-31.232 31.232v200.704l-367.104 219.648c-25.088 15.872-34.304 44.032-28.16 69.12 6.144 28.16 31.232 47.104 59.392 47.104h749.568c28.16 0 53.248-18.944 59.392-47.104 9.728-28.16-2.56-56.32-27.648-69.12z m-382.976-389.12H665.6V184.32h-125.44v-50.176z m-398.336 442.368l367.104-219.648 382.976 219.648H141.824zM202.752 840.192v-138.24c0-18.944-12.288-31.232-31.232-31.232s-31.232 12.288-31.232 31.232v138.24c0 18.944 12.288 31.232 31.232 31.232 18.432 0 31.232-12.288 31.232-31.232zM892.928 840.192v-138.24c0-18.944-12.288-31.232-31.232-31.232s-31.232 12.288-31.232 31.232v138.24c0 18.944 12.288 31.232 31.232 31.232 18.432 0 31.232-12.288 31.232-31.232zM664.064 840.192v-138.24c0-18.944-12.288-31.232-31.232-31.232s-31.232 12.288-31.232 31.232v138.24c0 18.944 12.288 31.232 31.232 31.232 18.432 0 31.232-12.288 31.232-31.232zM434.688 840.192v-138.24c0-18.944-12.288-31.232-31.232-31.232s-31.232 12.288-31.232 31.232v138.24c0 18.944 12.288 31.232 31.232 31.232s31.232-12.288 31.232-31.232zM930.304 900.096H108.032c-18.944 0-31.232 12.288-31.232 31.232s12.288 31.232 31.232 31.232h821.76c18.944 0 31.232-12.288 31.232-31.232 0.512-18.944-15.36-31.232-30.72-31.232z" p-id="8257"></path><path d="M436.736 466.944c0 40.96 31.232 72.192 72.192 72.192s72.192-31.232 72.192-72.192-31.232-72.192-72.192-72.192-72.192 34.304-72.192 72.192z m100.352 0c0 15.872-12.288 28.16-28.16 28.16s-28.16-9.216-28.16-28.16 12.288-28.16 28.16-28.16 28.16 12.288 28.16 28.16z" p-id="8258"></path></svg>