<?xml version="1.0" standalone="no"?><!DOCTYPE svg PUBLIC "-//W3C//DTD SVG 1.1//EN" "http://www.w3.org/Graphics/SVG/1.1/DTD/svg11.dtd"><svg t="1525230485235" class="icon" style="" viewBox="0 0 1024 1024" version="1.1" xmlns="http://www.w3.org/2000/svg" p-id="6552" xmlns:xlink="http://www.w3.org/1999/xlink" width="200" height="200"><defs><style type="text/css"></style></defs><path d="M480.492308 626.215385c-11.815385-11.815385-29.538462-11.815385-41.353846 0l-70.892308 70.892307c-11.815385 11.815385-33.476923 3.938462-33.476923-13.784615V423.384615c0-15.753846-13.784615-29.538462-29.538462-29.538461h-59.076923c-15.753846 0-29.538462 13.784615-29.538461 29.538461v259.938462c0 17.723077-21.661538 25.6-33.476923 13.784615l-70.892308-70.892307c-11.815385-11.815385-29.538462-11.815385-41.353846 0L27.569231 669.538462c-11.815385 11.815385-11.815385 29.538462 0 41.353846l226.461538 226.461538c11.815385 11.815385 29.538462 11.815385 41.353846 0L523.815385 708.923077c11.815385-11.815385 11.815385-29.538462 0-41.353846l-43.323077-41.353846zM1004.307692 187.076923c0-15.753846-13.784615-29.538462-29.538461-29.538461h-728.615385c-15.753846 0-29.538462 13.784615-29.538461 29.538461v59.076923c0 15.753846 13.784615 29.538462 29.538461 29.538462h728.615385c15.753846 0 29.538462-13.784615 29.538461-29.538462v-59.076923z m0 236.307692c0-15.753846-13.784615-29.538462-29.538461-29.538461h-531.692308c-15.753846 0-29.538462 13.784615-29.538461 29.538461v59.076923c0 15.753846 13.784615 29.538462 29.538461 29.538462h531.692308c15.753846 0 29.538462-13.784615 29.538461-29.538462v-59.076923z m0 236.307693c0-15.753846-13.784615-29.538462-29.538461-29.538462h-334.769231c-15.753846 0-29.538462 13.784615-29.538462 29.538462v59.076923c0 15.753846 13.784615 29.538462 29.538462 29.538461h334.769231c15.753846 0 29.538462-13.784615 29.538461-29.538461v-59.076923z" p-id="6553" fill="#ffffff"></path></svg>