<?xml version="1.0" standalone="no"?><!DOCTYPE svg PUBLIC "-//W3C//DTD SVG 1.1//EN" "http://www.w3.org/Graphics/SVG/1.1/DTD/svg11.dtd"><svg t="1530167908205" class="icon" style="" viewBox="0 0 1024 1024" version="1.1" xmlns="http://www.w3.org/2000/svg" p-id="7607" xmlns:xlink="http://www.w3.org/1999/xlink" width="16" height="16"><defs><style type="text/css"></style></defs><path d="M512.512 305.152c-113.152 0-204.8 91.648-204.8 204.8s91.648 204.8 204.8 204.8 204.8-91.648 204.8-204.8-91.648-204.8-204.8-204.8z m0 338.432c-73.728 0-133.632-59.904-133.632-133.632S438.784 376.32 512.512 376.32s133.632 59.904 133.632 133.632-59.904 133.632-133.632 133.632zM473.088 48.128h79.872v140.8h-79.872z m0 780.8h79.872v140.8h-79.872zM832 467.968h140.8v79.872H832z m-780.8 0H192v79.872H51.2z m659.866-213.146l99.558-99.558 56.474 56.479-99.554 99.558zM158.77 807.337l99.559-99.564 56.473 56.48-99.553 99.558z m552.423-44.38l56.473-56.474 99.564 99.559-56.474 56.473z m-552.505-552.3l56.479-56.473 99.564 99.558-56.48 56.474z" p-id="7608"></path></svg>