<?xml version="1.0" standalone="no"?><!DOCTYPE svg PUBLIC "-//W3C//DTD SVG 1.1//EN" "http://www.w3.org/Graphics/SVG/1.1/DTD/svg11.dtd"><svg t="1525228076687" class="icon" style="" viewBox="0 0 1024 1024" version="1.1" xmlns="http://www.w3.org/2000/svg" p-id="1463" xmlns:xlink="http://www.w3.org/1999/xlink" width="200" height="200"><defs><style type="text/css"></style></defs><path d="M884.363636 46.545455c51.2 0 93.090909 41.890909 93.090909 93.090909v256c0 51.2-41.890909 93.090909-93.090909 93.090909H628.363636c-51.2 0-93.090909-41.890909-93.090909-93.090909V139.636364c0-51.2 41.890909-93.090909 93.090909-93.090909h256zM395.636364 46.545455c51.2 0 93.090909 41.890909 93.090909 93.090909v256c0 51.2-41.890909 93.090909-93.090909 93.090909H139.636364c-51.2 0-93.090909-41.890909-93.090909-93.090909V139.636364c0-51.2 41.890909-93.090909 93.090909-93.090909h256z m488.727272 488.727272c51.2 0 93.090909 41.890909 93.090909 93.090909v256c0 51.2-41.890909 93.090909-93.090909 93.090909H628.363636c-51.2 0-93.090909-41.890909-93.090909-93.090909V628.363636c0-51.2 41.890909-93.090909 93.090909-93.090909h256z m-488.727272 0c51.2 0 93.090909 41.890909 93.090909 93.090909v256c0 51.2-41.890909 93.090909-93.090909 93.090909H139.636364c-51.2 0-93.090909-41.890909-93.090909-93.090909V628.363636c0-51.2 41.890909-93.090909 93.090909-93.090909h256z" fill="#515151" p-id="1464"></path></svg>