<?xml version="1.0" standalone="no"?><!DOCTYPE svg PUBLIC "-//W3C//DTD SVG 1.1//EN" "http://www.w3.org/Graphics/SVG/1.1/DTD/svg11.dtd"><svg t="1538981987049" class="icon" style="" viewBox="0 0 1024 1024" version="1.1" xmlns="http://www.w3.org/2000/svg" p-id="6554" xmlns:xlink="http://www.w3.org/1999/xlink" width="128" height="128"><defs><style type="text/css"></style></defs><path d="M493.053 63.34c-13.813 15.274-21.423 34.931-21.423 55.349 0 20.824 7.868 40.163 22.044 54.34l331.901 337.255-331.78 338.177c-14.833 14.833-23.005 34.423-23.005 55.163 0 20.937 8.305 40.369 23.005 54.321 14.833 14.833 34.268 23.005 54.743 23.005s39.906-8.17 54.881-23.133l383.339-390.041c14.914-14.922 22.971-36.13 21.921-57.513 0.069-1.312 0.102-2.625 0.102-3.93 0-19.245-7.372-37.532-21.897-53.465l-383.598-390.301c-14.833-14.833-34.279-23.011-54.751-23.011s-39.906 8.17-54.743 23.011l-0.736 0.771z" p-id="6555"></path><path d="M540.855 567.773c14.905-14.914 23.005-36.115 21.931-57.472 0.069-1.235 0.102-2.461 0.102-3.691 0-18.686-7.372-36.679-21.902-52.647l-383.605-390.307c-30.7-30.673-78.784-30.673-109.871 0.402-14.046 14.801-21.776 34.242-21.776 54.767 0 20.737 7.868 40.026 22.017 54.176l331.926 338.336-331.779 337.118c-14.833 14.833-23.005 34.423-23.005 55.163 0 20.937 8.305 40.369 23.005 54.321 14.833 14.833 34.279 23.005 54.743 23.005s39.906-8.17 54.881-23.133l383.339-390.041z" p-id="6556"></path></svg>