<?xml version="1.0" standalone="no"?><!DOCTYPE svg PUBLIC "-//W3C//DTD SVG 1.1//EN" "http://www.w3.org/Graphics/SVG/1.1/DTD/svg11.dtd"><svg t="1530172953209" class="icon" style="" viewBox="0 0 1024 1024" version="1.1" xmlns="http://www.w3.org/2000/svg" p-id="968" xmlns:xlink="http://www.w3.org/1999/xlink" width="200" height="200"><defs><style type="text/css"></style></defs><path d="M108.714667 858.24c-27.170133 9.736533-44.714667 32.3072-44.714667 52.9152v23.970133c0 15.0784 11.588267 24.874667 36.0704 24.874667h822.792533c24.490667 0 36.087467-9.796267 36.087467-24.874667v-23.970133c0-21.12-18.039467-44.7232-42.496-53.4784L688.930133 769.245867c-2.833067-1.1008-7.253333-2.901333-12.782933-5.307734a393.6256 393.6256 0 0 1-27.272533-13.056c-15.6672-8.311467-28.6976-16.759467-39.466667-26.794666-0.9984-0.938667-0.9984-0.938667-2.013867-1.928534-33.3568-32.699733-33.194667-77.098667-16.955733-131.3024 4.650667-15.5392 11.281067-26.709333 29.969067-54.9888a3821.909333 3821.909333 0 0 1 9.1392-13.781333c3.8144-5.76 6.7584-10.222933 9.685333-14.702933a1063.253333 1063.253333 0 0 0 20.113067-31.880534c27.229867-45.090133 44.629333-84.036267 51.106133-118.203733 1.792-9.429333 2.679467-18.269867 2.679467-26.504533 0-148.5312-94.097067-264.285867-202.862934-264.285867-108.757333 0-202.845867 115.754667-202.845866 264.2944 0 12.270933 1.877333 26.112 5.649066 41.301333 7.867733 31.761067 23.3216 67.336533 44.817067 105.7024 15.4624 27.5968 56.2432 90.3936 58.2144 94.1568 23.304533 44.526933 21.179733 110.890667-9.4208 145.092267-14.037333 15.5136-31.650133 25.745067-55.432533 36.096-9.728 4.224-19.831467 8.106667-29.909334 11.630933-3.8656 1.348267-7.236267 2.474667-9.9584 3.362134l-202.6496 90.094933z m829.329066-60.817067c47.607467 17.0496 84.906667 63.197867 84.906667 113.732267v23.970133c0 55.133867-44.893867 88.874667-100.087467 88.874667H100.0704C44.885333 1024 0 990.2592 0 935.125333v-23.970133c0-50.517333 37.290667-95.300267 84.898133-112.3584l203.733334-90.581333s55.227733-16.930133 70.3488-33.834667c10.0608-11.246933 13.166933-48.375467 0.4096-72.738133-12.731733-24.362667-115.976533-158.404267-115.976534-270.839467 0-181.2992 119.466667-328.2944 266.837334-328.2944C657.646933 2.5088 777.130667 149.504 777.130667 330.794667c0 117.393067-115.8656 246.621867-125.3888 278.417066-9.5232 31.7952-10.299733 56.695467 0.4608 67.242667 16.7424 16.418133 59.844267 33.109333 59.844266 33.109333l226.005334 87.8592z" p-id="969"></path></svg>