<?xml version="1.0" standalone="no"?><!DOCTYPE svg PUBLIC "-//W3C//DTD SVG 1.1//EN" "http://www.w3.org/Graphics/SVG/1.1/DTD/svg11.dtd"><svg t="1530072106777" class="icon" style="" viewBox="0 0 1024 1024" version="1.1" xmlns="http://www.w3.org/2000/svg" p-id="3368" xmlns:xlink="http://www.w3.org/1999/xlink" width="16" height="16"><defs><style type="text/css"></style></defs><path d="M512 64.2L124.2 288.1v447.8L512 959.8l387.8-223.9V288.1L512 64.2z m-35.5 273.7c-95.9 19.3-157.9 112.7-138.6 208.5 8.6 42.9 32.9 81.1 68 107.2l70.6-70.6v177.7H298.8l56.5-56.5C249 618.5 232.3 462.9 318 356.5c39.5-49 96.2-81.1 158.5-89.7v71.1zM706 667.5c-39.5 49-96.1 81-158.5 89.7v-71.1c82.7-16.9 142.2-89.7 142.1-174.1-0.1-55.9-26.6-108.4-71.5-141.7l-70.6 70.6V263.3h177.7l-56.5 56.5c106.3 85.7 123 241.4 37.3 347.7z" p-id="3369"></path></svg>