<?xml version="1.0" standalone="no"?><!DOCTYPE svg PUBLIC "-//W3C//DTD SVG 1.1//EN" "http://www.w3.org/Graphics/SVG/1.1/DTD/svg11.dtd"><svg t="1537869326523" class="icon" style="" viewBox="0 0 1024 1024" version="1.1" xmlns="http://www.w3.org/2000/svg" p-id="3806" xmlns:xlink="http://www.w3.org/1999/xlink" width="32" height="32"><defs><style type="text/css"></style></defs><path d="M529 761h348.6v50.2H529zM529 480.6h348.6v50H529zM529 620.8h348.6v50.2H529zM529 200h348.6v50.2H529zM529 340.4h348.6v50.2H529zM8.6 565.6v385.6H18v0.2h295.4v-50.2H58.8V565.6c0-18.4 15.6-33.8 33.8-33.8h221v-50.2H92.4c-46.2 0.2-83.8 37.8-83.8 84z" fill="#FFFFFF" p-id="3807"></path><path d="M1016.4 145.2c-0.2-46.2-37.8-83.8-84-83.8H474.2c-46.2 0-83.8 37.8-84 84l-0.2 805.8h7.4v0.2h611.6v-0.4h7.4V145.2z m-50 756H440.2v-756c0-18.4 15.6-33.8 33.8-33.8h458.4c18.4 0 33.8 15.6 33.8 33.8v756zM145.6 761h167.8v50.2H145.6zM145.6 620.8h167.8v50.2H145.6z" fill="#FFFFFF" p-id="3808"></path></svg>