<?xml version="1.0" standalone="no"?><!DOCTYPE svg PUBLIC "-//W3C//DTD SVG 1.1//EN" "http://www.w3.org/Graphics/SVG/1.1/DTD/svg11.dtd"><svg t="1530158063586" class="icon" style="" viewBox="0 0 1024 1024" version="1.1" xmlns="http://www.w3.org/2000/svg" p-id="4025" xmlns:xlink="http://www.w3.org/1999/xlink" width="16" height="16"><defs><style type="text/css"></style></defs><path d="M295.884536 727.002816 295.884536 245.175205l-50.478211 0 0 481.825566 0 50.478211 50.478211 0 481.825566 0 0-50.478211L295.884536 727.000771 295.884536 727.002816zM528.192706 659.881931l182.752394-337.608827-29.947405-16.532228-152.804989 281.882355-117.699316-217.520591-45.440616 180.682542 33.741452 8.267136 23.390147-94.646645L528.192706 659.881931 528.192706 659.881931zM528.192706 659.881931" p-id="4026"></path><path d="M511.560259 1022.654187c-281.947805 0-511.327094-229.379289-511.327094-511.327094s229.379289-511.327094 511.327094-511.327094 511.327094 229.379289 511.327094 511.327094S793.506018 1022.654187 511.560259 1022.654187zM511.560259 30.990512c-264.863344 0-480.336581 215.473237-480.336581 480.336581s215.473237 480.336581 480.336581 480.336581 480.336581-215.473237 480.336581-480.336581S776.423603 30.990512 511.560259 30.990512z" p-id="4027"></path></svg>