<?xml version="1.0" standalone="no"?><!DOCTYPE svg PUBLIC "-//W3C//DTD SVG 1.1//EN" "http://www.w3.org/Graphics/SVG/1.1/DTD/svg11.dtd"><svg t="1530167706714" class="icon" style="" viewBox="0 0 1024 1024" version="1.1" xmlns="http://www.w3.org/2000/svg" p-id="6399" xmlns:xlink="http://www.w3.org/1999/xlink" width="16" height="16"><defs><style type="text/css"></style></defs><path d="M489.570151 102.376669l-24.991184 0c-222.143403 0-402.851091 196.875926-402.851091 438.885795 0 234.888681 187.079816 418.923138 425.892877 418.923138 238.163261 0 431.91708-186.55486 431.91708-415.871639l0-24.992207L489.570151 519.321756 489.570151 102.376669 489.570151 102.376669zM868.707145 569.276495c-13.470803 190.130292-179.233104 340.903204-381.061832 340.903204-210.793914 0-375.909485-162.04156-375.909485-368.94077 0-205.173916 144.919601-373.763612 327.881632-387.906727l0 386.233622c0 7.994068 3.121084 15.520485 8.81783 21.139459 5.625114 5.548366 13.047154 8.598842 20.891819 8.598842l399.380036 0L868.707145 569.276495zM868.707145 569.276495" p-id="6400"></path><path d="M533.3564 63.814398l-24.991184 0L508.365216 474.939943c0 7.893784 3.221368 15.615653 9.070586 21.364587 5.624091 5.40101 12.945847 8.374738 20.668739 8.374738l424.166559 0 0-24.991184C962.2711 246.471484 773.866103 63.814398 533.3564 63.814398L533.3564 63.814398zM558.347584 454.695876 558.347584 114.545826c191.851493 11.520381 340.770174 155.019633 353.11534 340.149027L558.347584 454.694853 558.347584 454.695876zM558.347584 454.695876" p-id="6401"></path></svg>