<?xml version="1.0" standalone="no"?><!DOCTYPE svg PUBLIC "-//W3C//DTD SVG 1.1//EN" "http://www.w3.org/Graphics/SVG/1.1/DTD/svg11.dtd"><svg t="1530071505625" class="icon" style="" viewBox="0 0 1024 1024" version="1.1" xmlns="http://www.w3.org/2000/svg" p-id="1994" xmlns:xlink="http://www.w3.org/1999/xlink" width="16" height="16"><defs><style type="text/css"></style></defs><path d="M694.242 1024.003 329.763 1024.003C147.915 1024.003 0 876.092 0 694.242L0 329.763C0 147.916 147.915 0 329.763 0l364.479 0c181.85 0 329.761 147.916 329.761 329.763l0 364.479C1024.003 876.092 876.092 1024.003 694.242 1024.003zM329.763 52.083c-153.105 0-277.681 124.575-277.681 277.683l0 364.476c0 153.1 124.575 277.686 277.681 277.686l364.479 0c153.1 0 277.681-124.58 277.681-277.686L971.923 329.763c0-153.105-124.58-277.681-277.681-277.681L329.763 52.082 329.763 52.083z" p-id="1995"></path><path d="M712.982 161.281 309.478 161.281c-78.533 0-144.898 65.535-144.898 143.09l0 388.721c0 75.475 63.635 134.6 144.898 134.6l56.825 0c15.88 0 28.823-12.425 28.823-27.775 0-15.295-12.943-27.775-28.823-27.775l-56.825 0c-48.935 0-87.248-34.67-87.248-79.05L222.23 304.371c0-46.655 40.788-87.593 87.248-87.593l403.504 0c46.405 0 85.585 40.143 85.585 87.593l0 51.275c0 15.3 12.955 27.77 28.83 27.77 15.93 0 28.825-12.47 28.825-27.77l0-51.275C856.222 226.863 790.642 161.281 712.982 161.281L712.982 161.281M691.062 514.181c-15.935 0-28.83 12.425-28.83 27.775 0 54.355-45.88 98.58-102.295 98.58-15.93 0-28.825 12.415-28.825 27.765 0 15.31 12.895 27.775 28.825 27.775 88.22 0 159.95-69.16 159.95-154.12C719.887 526.606 706.992 514.181 691.062 514.181L691.062 514.181M479.644 408.606c-37.695 21.165-65.128 56.643-75.233 97.28-3.713 14.91 5.878 29.91 21.295 33.49 2.27 0.5 4.538 0.745 6.755 0.745 13.048 0 24.803-8.55 28-21.27 6.445-25.98 24.03-48.685 48.16-62.2 13.77-7.7 18.46-24.74 10.425-37.96C511.044 405.376 493.359 400.906 479.644 408.606L479.644 408.606M758.817 698.762c36.41-42.775 58.27-97.385 58.27-156.805 0-136.628-115.35-247.768-257.151-247.768-141.81 0-257.161 111.14-257.161 247.718 0 136.58 115.35 247.781 257.161 247.781 59.35 0 113.905-19.685 157.465-52.315l85.14 81.975c5.62 5.42 12.995 8.15 20.37 8.15s14.75-2.69 20.375-8.15c11.225-10.83 11.225-28.42 0-39.295L758.817 698.762 758.817 698.762M360.426 541.957c0-106.02 89.515-192.226 199.51-192.226 109.975 0 199.496 86.253 199.496 192.226 0 105.98-89.52 192.235-199.496 192.235C449.941 734.192 360.426 647.937 360.426 541.957L360.426 541.957" p-id="1996"></path></svg>