<?xml version="1.0" standalone="no"?><!DOCTYPE svg PUBLIC "-//W3C//DTD SVG 1.1//EN" "http://www.w3.org/Graphics/SVG/1.1/DTD/svg11.dtd"><svg t="1530666104453" class="icon" style="" viewBox="0 0 1024 1024" version="1.1" xmlns="http://www.w3.org/2000/svg" p-id="1576" xmlns:xlink="http://www.w3.org/1999/xlink" width="16" height="16"><defs><style type="text/css"></style></defs><path d="M711.292568 82.646096H109.695579c-36.720226 0-67.0254 30.323236-67.0254 67.010348v724.717215c0 36.717215 30.341298 66.980245 67.0254 66.980245h404.139228c0.909125 0 1.860395 0 2.724365-0.888053-10.111759-16.529821-16.457573-35.838194-16.457573-56.949764v-34.883914c0-59.728316 48.650235-108.441769 108.321355-108.441768h10.141863l41.292944-50.519662c-15.584572-16.52079-28.45381-35.799059-34.914017-57.831797-25.708373-78.088429 15.629727-162.573848 93.742239-188.276199 15.5635-5.508937 31.208278-7.375353 47.750141-7.375353 4.605833 0 8.296519 0 12.869238 0.918156V149.596237c-0.903104-37.572154-31.244403-66.950141-68.012794-66.950141zM205.222954 257.119849h171.752399c18.426341 0 34.044026 14.723612 34.044026 33.971778 0 19.275259-14.720602 33.99285-34.044026 33.992851H205.222954c-18.372154 0-33.99285-14.717592-33.992851-33.992851 0-19.218062 15.623706-33.971778 33.992851-33.971778z m275.585324 462.973472H205.222954c-18.372154 0-33.99285-14.690499-33.992851-34.028975 0-19.272248 14.672437-33.998871 33.992851-33.998871h275.585324c18.33904 0 33.959737 14.729633 33.959737 33.998871 0 19.338476-15.620696 34.028975-33.959737 34.028975z m50.5016-197.517968H205.222954c-18.372154 0-33.99285-14.693509-33.992851-33.968768s14.672437-33.962747 33.992851-33.962747h326.086924c18.348071 0 33.99285 14.687488 33.99285 33.962747 0 19.278269-15.647789 33.968768-33.99285 33.968768z" p-id="1577"></path><path d="M923.446849 790.773283H889.47206l-92.763876-112.081279c51.507056-17.441957 79.027658-73.470555 62.482785-124.908373-13.736218-41.311007-52.337912-67.010348-93.688053-67.010348-10.087676 0-21.090499 1.836312-31.259454 5.472813-51.404704 17.475071-78.991533 73.467545-62.425588 124.908372a100.608843 100.608843 0 0 0 62.425588 62.449671l-91.863782 111.172155h-34.865851a57.624083 57.624083 0 0 0-57.85889 57.86491v34.880903a57.636124 57.636124 0 0 0 57.85889 57.834807h315.93302a57.648166 57.648166 0 0 0 57.882972-57.834807v-34.880903a57.633114 57.633114 0 0 0-57.882972-57.867921z" p-id="1578"></path></svg>