<?xml version="1.0" standalone="no"?><!DOCTYPE svg PUBLIC "-//W3C//DTD SVG 1.1//EN" "http://www.w3.org/Graphics/SVG/1.1/DTD/svg11.dtd"><svg t="1530167378789" class="icon" style="" viewBox="0 0 1024 1024" version="1.1" xmlns="http://www.w3.org/2000/svg" p-id="4743" xmlns:xlink="http://www.w3.org/1999/xlink" width="16" height="16"><defs><style type="text/css"></style></defs><path d="M469.624435 350.10075c-55.199729 26.25006-99.000315 71.606145-123.275301 127.662421-5.700083 15.937719 1.94949 33.56909 17.500381 40.288434 15.550891 6.718321 33.637655 0.225138 41.362956-14.843753 18.112347-41.862353 50.811586-75.743566 92.000572-95.380711a31.995171 31.995171 0 0 0 19.11114-26.476221 32.020755 32.020755 0 0 0-14.04963-29.46237 32.065782 32.065782 0 0 0-32.624534-1.8185v0.0307h-0.025584z m328.700366 195.69399c-17.699935 0.020467-32.049409 14.356637-32.062712 32.049408-0.174994 103.804963-84.337695 187.925707-188.22555 188.093537-17.686632 0-32.037129 14.3331-32.037129 32.011545 0 17.680492 14.349473 32.013591 32.037129 32.013591 66.925322 0.193414 131.150012-26.38105 178.337901-73.799192 47.463171-47.158211 74.063218-111.337874 73.85036-178.219192a31.822224 31.822224 0 0 0-9.300243-22.717441 31.95833 31.95833 0 0 0-22.700045-9.394392h0.100289v-0.037864z m217.124051 422.630983L870.137663 823.225057a381.662019 381.662019 0 0 0 90.473727-247.249554c0.212858-101.856497-40.324251-199.568408-112.599669-271.392527-71.87324-72.206853-169.649623-112.718379-271.574685-112.524965a381.975166 381.975166 0 0 0-271.573661 112.4564c-72.250858 71.837423-112.787967 169.544218-112.588413 271.391504-0.225138 101.861613 40.324251 199.575572 112.588413 271.394574 71.887567 72.21197 169.661903 112.724519 271.573661 112.524965a382.134809 382.134809 0 0 0 248.449948-91.148117l145.299932 145.209876c12.675266 11.662145 32.286827 11.23643 44.449392-0.937392 12.150285-12.186103 12.513576-31.797664 0.812544-44.423809v-0.100289z m-439.011816-72.626428c-176.761935-0.176017-320.036649-143.335092-320.199362-319.988552 0.237418-176.585918 143.499852-319.685638 320.199362-319.821744 176.725094 0.205694 319.937384 143.317695 320.136938 319.915893-0.199554 176.620712-143.399563 319.74397-320.136938 319.993668v-0.099265z m-257.087058 64.201153H140.199534a76.144721 76.144721 0 0 1-53.79978-22.251815 76.096623 76.096623 0 0 1-22.324474-53.74759V140.001003c0.074705-41.982085 34.124771-75.994288 76.124254-76.068992h680.525469c41.987202 0.074705 76.011685 34.093047 76.048525 76.068992v92.674962c0 17.687655 14.338217 32.018708 32.039175 32.018709 17.686632 0 32.037129-14.33003 32.037129-32.018709v-92.743526c-0.138153-77.268364-62.812461-139.85671-140.124829-139.931416H140.199534c-77.349209 0.037864-140.050124 62.637468-140.187254 139.931416v744.118749c0.086985 77.299064 62.786877 139.897645 140.124829 139.947789h179.137141c17.699935 0 32.037129-14.34845 32.037129-32.021779 0-17.676398-14.337193-32.013591-32.037129-32.013591h0.074705v0.036841h0.001023z" p-id="4744"></path></svg>