<?xml version="1.0" standalone="no"?><!DOCTYPE svg PUBLIC "-//W3C//DTD SVG 1.1//EN" "http://www.w3.org/Graphics/SVG/1.1/DTD/svg11.dtd"><svg t="1525230591673" class="icon" style="" viewBox="0 0 1024 1024" version="1.1" xmlns="http://www.w3.org/2000/svg" p-id="8056" xmlns:xlink="http://www.w3.org/1999/xlink" width="200" height="200"><defs><style type="text/css"></style></defs><path d="M849.6 812V137H174.6V812H137v75h750V812h-37.4z m-450-150h-75v-75h75V662z m0-150h-75v-75h75V512z m0-150h-75v-75h75V362z m150 450h-75v-75h75V812z m0-150h-75v-75h75V662z m0-150h-75v-75h75V512z m0-150h-75v-75h75V362z m150 300h-75v-75h75V662z m0-150h-75v-75h75V512z m0-150h-75v-75h75V362z" p-id="8057" fill="#ffffff"></path></svg>