<?xml version="1.0" standalone="no"?><!DOCTYPE svg PUBLIC "-//W3C//DTD SVG 1.1//EN" "http://www.w3.org/Graphics/SVG/1.1/DTD/svg11.dtd"><svg t="1537954841135" class="icon" style="" viewBox="0 0 1024 1024" version="1.1" xmlns="http://www.w3.org/2000/svg" p-id="8518" xmlns:xlink="http://www.w3.org/1999/xlink" width="16" height="16"><defs><style type="text/css"></style></defs><path d="M95.085714 292.571429L512 504.685714 928.914286 292.571429 512 87.771429 95.085714 292.571429z m58.514286 329.142857L65.828571 577.828571C36.571429 563.2 21.942857 541.257143 21.942857 512s14.628571-51.2 43.885714-65.828571l87.771429-43.885715-87.771429-43.885714C29.257143 343.771429 14.628571 299.885714 29.257143 263.314286c7.314286-14.628571 21.942857-29.257143 29.257143-29.257143L475.428571 29.257143c21.942857-7.314286 43.885714-7.314286 65.828572 0l416.914286 204.8c36.571429 14.628571 51.2 58.514286 29.257142 95.085714-7.314286 14.628571-21.942857 29.257143-29.257142 29.257143l-87.771429 43.885714L950.857143 438.857143c36.571429 14.628571 51.2 36.571429 51.2 73.142857 0 29.257143-14.628571 58.514286-51.2 73.142857l-80.457143 36.571429L950.857143 658.285714c36.571429 14.628571 51.2 36.571429 51.2 73.142857 0 29.257143-14.628571 58.514286-51.2 73.142858l-402.285714 197.485714c-7.314286 7.314286-21.942857 7.314286-36.571429 7.314286s-21.942857 0-36.571429-7.314286L58.514286 797.257143c-29.257143-14.628571-36.571429-36.571429-36.571429-65.828572s14.628571-51.2 43.885714-65.828571l87.771429-43.885714z m80.457143 43.885714l-138.971429 65.828571L512 943.542857l416.914286-204.8-138.971429-65.828571-241.371428 117.028571c-7.314286 7.314286-21.942857 7.314286-36.571429 7.314286s-21.942857 0-36.571429-7.314286L234.057143 665.6z m555.885714-219.428571L548.571429 563.2c-21.942857 7.314286-43.885714 7.314286-65.828572 0L234.057143 446.171429 95.085714 512 512 724.114286 928.914286 512l-138.971429-65.828571z" p-id="8519"></path></svg>