<?xml version="1.0" standalone="no"?><!DOCTYPE svg PUBLIC "-//W3C//DTD SVG 1.1//EN" "http://www.w3.org/Graphics/SVG/1.1/DTD/svg11.dtd"><svg t="1528703163160" class="icon" style="" viewBox="0 0 1024 1024" version="1.1" xmlns="http://www.w3.org/2000/svg" p-id="1484" xmlns:xlink="http://www.w3.org/1999/xlink" width="16" height="16"><defs><style type="text/css"></style></defs><path d="M960 192v512c0 103.63-123.248 192-260.044 192l125.96 99.442C837.81 1004.834 831.124 1024 816 1024H208c-15.156 0-21.784-19.188-9.914-28.558L324.044 896C187.64 896 64 807.908 64 704V192C64 85.962 192 0 320 0h384c130 0 256 85.962 256 192zM464 464V240c0-26.51-21.49-48-48-48H208c-26.51 0-48 21.49-48 48v224c0 26.51 21.49 48 48 48h208c26.51 0 48-21.49 48-48z m400 0V240c0-26.51-21.49-48-48-48H608c-26.51 0-48 21.49-48 48v224c0 26.51 21.49 48 48 48h208c26.51 0 48-21.49 48-48z m-96 112c-53.02 0-96 42.98-96 96s42.98 96 96 96 96-42.98 96-96-42.98-96-96-96z m-512 0c-53.02 0-96 42.98-96 96s42.98 96 96 96 96-42.98 96-96-42.98-96-96-96z" fill="" p-id="1485"></path></svg>