<?xml version="1.0" standalone="no"?><!DOCTYPE svg PUBLIC "-//W3C//DTD SVG 1.1//EN" "http://www.w3.org/Graphics/SVG/1.1/DTD/svg11.dtd"><svg t="1530072067347" class="icon" style="" viewBox="0 0 1024 1024" version="1.1" xmlns="http://www.w3.org/2000/svg" p-id="2677" xmlns:xlink="http://www.w3.org/1999/xlink" width="16" height="16"><defs><style type="text/css"></style></defs><path d="M1076.783505 1076.783505M510.24055 211.134021c-31.670103 0-59.821306-28.151203-59.821306-59.821306 0-31.670103 28.151203-59.821306 59.821306-59.821306 35.189003 0 59.821306 28.151203 59.821306 59.821306C570.061856 190.020619 541.910653 211.134021 510.24055 211.134021zM675.628866 119.642612c-17.594502 0-28.151203-14.075601-28.151203-28.151203l0 0c0-28.151203-24.632302-52.783505-56.302405-52.783505l-165.388316 0c-31.670103 0-56.302405 24.632302-56.302405 52.783505l0 0c0 17.594502-14.075601 28.151203-28.151203 28.151203l-21.113402 0c-17.594502 0-28.151203 14.075601-28.151203 28.151203l0 84.453608c0 17.594502 14.075601 28.151203 28.151203 28.151203l373.003436 0c17.594502 0 28.151203-14.075601 28.151203-28.151203l0-84.453608c0-17.594502-14.075601-28.151203-28.151203-28.151203L675.628866 119.642612zM798.790378 482.089347l-313.182131 365.965636c-7.037801 10.556701-28.151203 7.037801-38.707904-3.5189l-211.134021-172.426117c-3.5189-3.5189-7.037801-10.556701 0-14.075601l38.707904-45.745704c3.5189-3.5189 10.556701-3.5189 14.075601 0l165.388316 133.718213c7.037801 3.5189 14.075601 3.5189 21.113402-3.5189l260.398625-316.701031c0 0 0 0 0 0 3.5189-7.037801 10.556701-7.037801 14.075601-3.5189l49.264605 42.226804C805.828179 468.013746 809.347079 471.532646 798.790378 482.089347zM798.790378 182.982818l0 123.161512c0 17.594502-14.075601 28.151203-28.151203 28.151203L246.323024 337.814433c-17.594502 0-28.151203-14.075601-28.151203-28.151203l0-123.161512c0-17.594502-14.075601-28.151203-28.151203-28.151203L172.426117 158.350515C126.680412 154.831615 105.56701 182.982818 105.56701 221.690722l0 686.185567c0 31.670103 31.670103 73.896907 73.896907 73.896907l658.034364 0c35.189003 0 73.896907-38.707904 73.896907-73.896907L911.395189 218.171821c0-31.670103-24.632302-63.340206-63.340206-63.340206l-17.594502 0C812.865979 154.831615 798.790378 165.388316 798.790378 182.982818zM478.570447 858.611684" p-id="2678"></path></svg>