<?xml version="1.0" standalone="no"?><!DOCTYPE svg PUBLIC "-//W3C//DTD SVG 1.1//EN" "http://www.w3.org/Graphics/SVG/1.1/DTD/svg11.dtd"><svg t="1525228262315" class="icon" style="" viewBox="0 0 1024 1024" version="1.1" xmlns="http://www.w3.org/2000/svg" p-id="5884" xmlns:xlink="http://www.w3.org/1999/xlink" width="200" height="200"><defs><style type="text/css"></style></defs><path d="M779.997242 65.311495 243.998665 65.311495c-98.623181 0-178.709171 79.997985-178.709171 178.709171l0 535.9996c0 98.625228 80.08599 178.667216 178.709171 178.667216l535.998577 0c98.711186 0 178.711218-80.041988 178.711218-178.667216L958.70846 244.020666C958.70846 145.30948 878.708428 65.311495 779.997242 65.311495zM869.286848 735.353974c0 73.979922-59.977 133.956921-133.954875 133.956921-174.959777 1.874697-68.963675 0-178.667216 0l178.667216 0L735.331973 735.353974c0-98.711186-88.897679-178.711218-198.513216-178.711218l-24.819269 0-24.821315 0c-109.615537 0-198.513216 80.000032-198.513216 178.711218l0 133.956921 178.667216 0c-109.615537 0 25.998117 1.874697-178.667216 0-74.021877 0-133.954875-59.977-133.954875-133.956921L154.710083 288.643979c0-73.979922 59.932997-134.042879 133.954875-134.042879l446.667016 0c73.977875 0 133.954875 60.062957 133.954875 134.042879L869.286848 735.353974zM511.999488 556.642756c-73.979922 0-133.956921-69.965491-133.956921-156.288532 0-86.367043 59.977-156.333558 133.956921-156.333558 73.977875 0 134.042879 69.966515 134.042879 156.333558C646.042367 486.677265 585.977363 556.642756 511.999488 556.642756z" p-id="5885"></path></svg>