<?xml version="1.0" standalone="no"?><!DOCTYPE svg PUBLIC "-//W3C//DTD SVG 1.1//EN" "http://www.w3.org/Graphics/SVG/1.1/DTD/svg11.dtd"><svg t="1529920158332" class="icon" style="" viewBox="0 0 1024 1024" version="1.1" xmlns="http://www.w3.org/2000/svg" p-id="1056" xmlns:xlink="http://www.w3.org/1999/xlink" width="16" height="16"><defs><style type="text/css"></style></defs><path d="M807.394861 131.628397C818.130432 131.628397 827.32256 138.236639 831.125472 147.607342 832.70489 149.445795 834.070957 151.575016 835.156339 153.99562L982.086022 481.67562C987.87072 494.576556 982.101875 509.724256 969.200934 515.508956 956.3 521.293655 941.152301 515.524806 935.367603 502.623871L815.356102 227.200003 695.553645 502.194957C690.005824 515.199515 674.966144 521.244391 661.961587 515.696566 648.95703 510.14874 642.912154 495.109062 648.459974 482.104505L776.133024 182.828397 551.39486 182.828397 551.39486 882.102854 730.268218 958.762867C761.553293 972.170758 759.256659 983.04 725.546733 983.04L274.842985 983.04C240.950306 983.04 237.920446 972.563322 270.121506 958.762867L448.99486 882.102854 448.99486 184.32 231.125786 182.828397 367.610976 481.509836C373.487236 494.369325 367.82621 509.55765 354.966721 515.43391 342.107232 521.31017 326.918907 515.649144 321.042647 502.789656L192.994861 227.200003 81.377574 501.652933C76.1291 514.781163 61.231838 521.168967 48.103609 515.920493 34.975379 510.672019 28.587575 495.774758 33.836049 482.646529L167.629103 147.984298C171.414596 138.515484 179.502454 133.189429 188.088751 132.098025 189.676625 131.789834 191.31689 131.628397 192.99486 131.628397L446.13911 131.628397C441.429329 122.936357 438.75486 112.980506 438.75486 102.4 438.75486 68.467625 466.262485 40.96 500.19486 40.96 534.127235 40.96 561.63486 68.467625 561.63486 102.4 561.63486 112.980506 558.960392 122.936357 554.25061 131.628397L807.394861 131.628397 807.394861 131.628397 807.394861 131.628397 807.394861 131.628397 807.394861 131.628397Z" p-id="1057"></path><path d="M810.240026 719.969856C725.389094 719.969856 655.511328 655.862138 646.400026 573.44L974.080026 573.44C964.968717 655.862138 895.09095 719.969856 810.240026 719.969856Z" p-id="1058"></path><path d="M359.68 573.44C350.568695 655.862138 280.690927 719.969856 195.84 719.969856 110.989073 719.969856 41.111305 655.862138 32 573.44L359.68 573.44 359.68 573.44 359.68 573.44 359.68 573.44 359.68 573.44 359.68 573.44Z" p-id="1059"></path></svg>