<?xml version="1.0" standalone="no"?><!DOCTYPE svg PUBLIC "-//W3C//DTD SVG 1.1//EN" "http://www.w3.org/Graphics/SVG/1.1/DTD/svg11.dtd"><svg t="1528709302523" class="icon" style="" viewBox="0 0 1024 1024" version="1.1" xmlns="http://www.w3.org/2000/svg" p-id="6995" xmlns:xlink="http://www.w3.org/1999/xlink" width="16" height="16"><defs><style type="text/css"></style></defs><path d="M912.384 845.824l-29.696 0L882.688 336.896c0-13.312-10.24-24.576-23.552-24.576L605.184 312.32c-13.312 0-23.552 11.264-23.552 24.576l0 508.928-67.584 0L514.048 204.8c0-13.312-10.24-24.576-23.552-24.576L165.888 180.224c-13.312 0-23.552 11.264-23.552 24.576l0 641.024-29.696 0c-15.36 0-27.648 12.288-27.648 28.672 0 15.36 12.288 28.672 27.648 28.672l800.768 0c15.36 0 27.648-12.288 27.648-28.672C940.032 858.112 927.744 845.824 912.384 845.824zM207.872 246.784l86.016 0 0 87.04-86.016 0L207.872 246.784zM207.872 367.616l86.016 0 0 87.04-86.016 0L207.872 367.616zM207.872 489.472l86.016 0 0 87.04-86.016 0L207.872 489.472zM207.872 611.328l86.016 0 0 87.04-86.016 0L207.872 611.328zM381.952 845.824 273.408 845.824l0-81.92 109.568 0L382.976 845.824zM447.488 698.368l-86.016 0 0-87.04 86.016 0L447.488 698.368zM447.488 576.512l-86.016 0 0-87.04 86.016 0L447.488 576.512zM447.488 454.656l-86.016 0 0-87.04 86.016 0L447.488 454.656zM447.488 332.8l-86.016 0 0-87.04 86.016 0L447.488 332.8zM634.88 365.568l69.632 0 0 70.656L634.88 436.224 634.88 365.568zM634.88 463.872l69.632 0 0 70.656L634.88 534.528 634.88 463.872zM634.88 563.2l69.632 0 0 70.656L634.88 633.856 634.88 563.2zM634.88 661.504l69.632 0 0 70.656L634.88 732.16 634.88 661.504zM776.192 845.824l-88.064 0 0-60.416 88.064 0L776.192 845.824zM828.416 731.136l-69.632 0 0-70.656 69.632 0L828.416 731.136zM828.416 632.832l-69.632 0L758.784 563.2l69.632 0L828.416 632.832zM828.416 534.528l-69.632 0 0-70.656 69.632 0L828.416 534.528zM828.416 436.224l-69.632 0 0-70.656 69.632 0L828.416 436.224z" p-id="6996"></path></svg>