<?xml version="1.0" standalone="no"?><!DOCTYPE svg PUBLIC "-//W3C//DTD SVG 1.1//EN" "http://www.w3.org/Graphics/SVG/1.1/DTD/svg11.dtd"><svg t="1530692423835" class="icon" style="" viewBox="0 0 1024 1024" version="1.1" xmlns="http://www.w3.org/2000/svg" p-id="4766" xmlns:xlink="http://www.w3.org/1999/xlink" width="200" height="200"><defs><style type="text/css"></style></defs><path d="M307.2 102.4v102.4h409.6V102.4h153.6c28.2624 0 51.2 22.784 51.2 51.2v716.8c0 28.2624-22.784 51.2-51.2 51.2H153.6c-28.2624 0-51.2-22.784-51.2-51.2V153.6c0-28.2624 22.784-51.2 51.2-51.2h153.6z m358.4 316.0576l-211.7632 215.6032-9.1136 9.3184-86.4256-88.064a29.7472 29.7472 0 0 0-51.0976 21.4016c0 8.192 3.072 15.872 8.8064 21.7088l107.6224 109.568a29.4912 29.4912 0 0 0 42.2912 0l242.0736-246.3744a30.72 30.72 0 0 0 0-43.1104 29.5936 29.5936 0 0 0-42.3936 0zM358.4 51.2h307.2v102.4H358.4V51.2z" p-id="4767"></path></svg>