<?xml version="1.0" standalone="no"?><!DOCTYPE svg PUBLIC "-//W3C//DTD SVG 1.1//EN" "http://www.w3.org/Graphics/SVG/1.1/DTD/svg11.dtd"><svg t="1528710231594" class="icon" style="" viewBox="0 0 1024 1024" version="1.1" xmlns="http://www.w3.org/2000/svg" p-id="7829" xmlns:xlink="http://www.w3.org/1999/xlink" width="16" height="16"><defs><style type="text/css"></style></defs><path d="M254.8746 854.5444 254.8746 498.187264l39.131136 0 0-44.130304L94.164992 454.05696l0 40.17152 39.12704 0 0 360.31488L254.874624 854.54336zM31.7174 414.9268c0 0 966.1348 0 967.5919 0 23.3165-10.2031 22.2751-32.0625 0.4157-46.6319C977.8668 353.7203 514.6655 19.3475 514.6655 19.3475S55.0339 353.7203 31.7174 368.2949C8.4019 382.8644 6.9448 404.7237 31.7174 414.9268zM514.6655 184.4603c38.6304 0 69.9484 31.3139 69.9484 69.9484 0 38.6304-31.317 69.9484-69.9484 69.9484-38.6345 0-69.9515-31.317-69.9515-69.9484C444.713 215.7742 476.031 184.4603 514.6655 184.4603zM55.8346 934.4993 975.188992 934.4993 975.188992 895.368192 55.834624 895.368192 55.834624 934.499328zM15.9068 1014.4543l999.213056 0 0-36.625408L15.906816 977.828892 15.906816 1014.454272zM576.3072 854.5444 576.3072 495.685632l39.12704 0 0-39.131136L415.593472 456.554496l0 37.673984 39.12704 0 0 360.31488L576.3072 854.54336zM895.234 854.5444 895.234 495.685632l39.131136 0 0-39.131136L734.52032 456.554496l0 37.673984 39.131136 0 0 360.31488L895.234048 854.54336z" p-id="7830"></path></svg>