<?xml version="1.0" standalone="no"?><!DOCTYPE svg PUBLIC "-//W3C//DTD SVG 1.1//EN" "http://www.w3.org/Graphics/SVG/1.1/DTD/svg11.dtd"><svg t="1528709274091" class="icon" style="" viewBox="0 0 1554 1024" version="1.1" xmlns="http://www.w3.org/2000/svg" p-id="6541" xmlns:xlink="http://www.w3.org/1999/xlink" width="24.28125" height="16"><defs><style type="text/css"></style></defs><path d="M1213.62963 976.592593v-28.444445h113.777777v28.444445h-113.777777z m85.333333-170.666667h28.444444v113.777778h-28.444444V805.925926z m0-170.666667h28.444444v113.777778h-28.444444V635.259259z m0-170.666666h28.444444v113.777777h-28.444444V464.592593z m-113.777778-28.444445h113.777778v28.444445h-113.777778v-28.444445z m-170.666666 0h113.777777v28.444445h-113.777777v-28.444445z m-142.222223 0h85.333334v28.444445h-85.333334v-28.444445z m-18.962963 540.444445H246.518519c-10.42963 0-18.962963-8.533333-18.962963-18.962963V293.925926c0-10.42963 8.533333-18.962963 18.962963-18.962963h284.444444V47.407407h227.555556v151.703704H559.407407v75.851852h293.925926c10.42963 0 18.962963 8.533333 18.962963 18.962963v663.703704c0 10.42963-8.533333 18.962963-18.962963 18.962963z m-9.481481-673.185186H256v644.740741h189.62963V711.111111h208.592592v237.037037h189.62963V303.407407z m-75.851852 161.185186H673.185185V369.777778h94.814815v94.814815z m0 170.666666H673.185185V540.444444h94.814815v94.814815zM502.518519 540.444444h94.814814v94.814815H502.518519V540.444444z m0-170.666666h94.814814v94.814815H502.518519V369.777778zM331.851852 540.444444h94.814815v94.814815H331.851852V540.444444z m0-170.666666h94.814815v94.814815H331.851852V369.777778z m654.222222 606.814815H872.296296v-28.444445h113.777778v28.444445z m-37.925926-426.666667h94.814815v94.814815h-94.814815V549.925926z m94.814815 256h-94.814815V711.111111h94.814815v94.814815z m113.777778 170.666667h-113.777778v-28.444445h113.777778v28.444445z m-37.925926-426.666667h94.814815v94.814815h-94.814815V549.925926z m94.814815 256h-94.814815V711.111111h94.814815v94.814815z" p-id="6542"></path></svg>