<?xml version="1.0" standalone="no"?><!DOCTYPE svg PUBLIC "-//W3C//DTD SVG 1.1//EN" "http://www.w3.org/Graphics/SVG/1.1/DTD/svg11.dtd"><svg t="1528709220672" class="icon" style="" viewBox="0 0 1024 1024" version="1.1" xmlns="http://www.w3.org/2000/svg" p-id="5847" xmlns:xlink="http://www.w3.org/1999/xlink" width="16" height="16"><defs><style type="text/css"></style></defs><path d="M746.518261 134.41113c32.077913-3.33913 60.059826-0.667826 83.968 8.036174 23.885913 8.681739 43.853913 20.902957 59.904 36.59687a140.198957 140.198957 0 0 1 34.860522 54.672696 138.685217 138.685217 0 0 1 7.368347 61.70713 138.061913 138.061913 0 0 1-20.635826 58.167652c-11.442087 18.387478-27.981913 32.946087-49.574956 43.631305a1329.263304 1329.263304 0 0 1-84.48 39.624347 790.973217 790.973217 0 0 1-79.048348 29.094957c-25.199304 7.702261-48.617739 12.889043-70.210783 15.560348-21.615304 2.671304-40.915478 2.003478-57.945043-2.003479a1549.734957 1549.734957 0 0 0-21.615304 131.895653 1199.549217 1199.549217 0 0 0-8.837566 146.96626c0 23.396174 0.489739 46.814609 1.469218 70.210783 0.979478 23.418435 2.137043 44.81113 3.450435 64.200348 1.29113 22.060522 2.938435 43.475478 4.897391 64.200348H406.706087c0.667826-12.710957 1.647304-29.42887 2.938435-50.153739 0.667826-17.385739 1.313391-40.114087 1.981217-68.207305 0.645565-28.093217 0.979478-62.530783 0.979478-103.334956 0-52.157217 3.272348-101.977043 9.817044-149.459479a1582.881391 1582.881391 0 0 1 22.594782-128.400695c-25.533217 6.010435-52.713739 5.698783-81.519304-1.001739-28.805565-6.678261-57.61113-17.897739-86.416696-33.613913a482.281739 482.281739 0 0 1-83.47826-58.167653 528.205913 528.205913 0 0 1-71.702261-74.729739c-13.757217-17.385739-22.906435-34.771478-27.492174-52.157217a118.249739 118.249739 0 0 1-2.470957-51.155478 136.882087 136.882087 0 0 1 17.697392-47.170783 217.488696 217.488696 0 0 1 30.920347-40.114087 107.119304 107.119304 0 0 1 37.331479-23.062261 149.904696 149.904696 0 0 1 46.636521-9.037913c16.695652-0.667826 33.725217 0.667826 51.066435 4.006957 17.363478 3.361391 34.214957 8.704 50.576696 16.050087 16.384 8.036174 33.903304 18.899478 52.557913 32.612174a441.878261 441.878261 0 0 1 54.004869 47.148521c17.363478 17.719652 33.391304 36.59687 48.128 56.676174a395.776 395.776 0 0 1 36.819479 60.171131 247.629913 247.629913 0 0 1 41.249391-53.648696 345.021217 345.021217 0 0 1 56.475826-45.657043 374.53913 374.53913 0 0 1 64.823652-33.591653c22.572522-9.037913 44.677565-14.558609 66.29287-16.562087z" p-id="5848"></path></svg>