<?xml version="1.0" standalone="no"?><!DOCTYPE svg PUBLIC "-//W3C//DTD SVG 1.1//EN" "http://www.w3.org/Graphics/SVG/1.1/DTD/svg11.dtd"><svg t="1530237369878" class="icon" style="" viewBox="0 0 1024 1024" version="1.1" xmlns="http://www.w3.org/2000/svg" p-id="1864" xmlns:xlink="http://www.w3.org/1999/xlink" width="200" height="200"><defs><style type="text/css"></style></defs><path d="M526.925944 110.523209c-212.498742 0-384.763131 172.264389-384.763131 384.763131s172.264389 384.763131 384.763131 384.763131 384.763131-172.264389 384.763131-384.763131S739.424686 110.523209 526.925944 110.523209zM786.320763 513.447978c0 10.737552-8.705266 19.442818-19.442818 19.442818L564.5304 532.890796l0 202.347544c0 10.737552-8.705266 19.442818-19.442818 19.442818l-36.323277 0c-10.737552 0-19.442818-8.705266-19.442818-19.442818L489.321488 532.890796l-202.348568 0c-10.737552 0-19.442818-8.705266-19.442818-19.442818l0-36.323277c0-10.737552 8.705266-19.442818 19.442818-19.442818l202.347544 0L489.320465 255.334339c0-10.737552 8.705266-19.442818 19.442818-19.442818l36.323277 0c10.737552 0 19.442818 8.705266 19.442818 19.442818l0 202.347544L766.876921 457.681884c10.737552 0 19.442818 8.705266 19.442818 19.442818l0 36.323277L786.320763 513.447978z" p-id="1865"></path></svg>