<?xml version="1.0" standalone="no"?><!DOCTYPE svg PUBLIC "-//W3C//DTD SVG 1.1//EN" "http://www.w3.org/Graphics/SVG/1.1/DTD/svg11.dtd"><svg t="1530692240071" class="icon" style="" viewBox="0 0 1024 1024" version="1.1" xmlns="http://www.w3.org/2000/svg" p-id="2837" xmlns:xlink="http://www.w3.org/1999/xlink" width="200" height="200"><defs><style type="text/css"></style></defs><path d="M580.096 250.88h-128c-53.248 0-97.28-43.52-97.28-97.28 0-53.248 43.52-97.28 97.28-97.28h128c53.248 0 97.28 43.52 97.28 97.28s-43.52 97.28-97.28 97.28zM580.096 604.16h-128c-53.248 0-97.28-43.52-97.28-97.28 0-53.248 43.52-97.28 97.28-97.28h128c53.248 0 97.28 43.52 97.28 97.28s-43.52 97.28-97.28 97.28zM580.096 952.32h-128c-53.248 0-97.28-43.52-97.28-97.28 0-53.248 43.52-97.28 97.28-97.28h128c53.248 0 97.28 43.52 97.28 97.28s-43.52 97.28-97.28 97.28zM212.48 880.64C98.304 880.64 5.12 787.456 5.12 673.28S98.304 465.92 212.48 465.92H245.76c19.968 0 35.84 15.872 35.84 35.84s-15.872 35.84-35.84 35.84h-33.28C137.728 537.6 76.8 598.528 76.8 673.28S137.728 808.96 212.48 808.96c19.968 0 35.84 15.872 35.84 35.84s-15.872 35.84-35.84 35.84z" p-id="2838"></path><path d="M310.784 842.752L209.92 947.2v-209.92zM816.64 522.24H783.36c-19.968 0-35.84-15.872-35.84-35.84s15.872-35.84 35.84-35.84h33.28c74.752 0 135.68-60.928 135.68-135.68S891.392 179.2 816.64 179.2c-19.968 0-35.84-15.872-35.84-35.84s15.872-35.84 35.84-35.84c114.176 0 207.36 93.184 207.36 207.36S930.816 522.24 816.64 522.24z" p-id="2839"></path><path d="M718.336 145.408L819.2 40.96v209.92z" p-id="2840"></path></svg>