<?xml version="1.0" standalone="no"?><!DOCTYPE svg PUBLIC "-//W3C//DTD SVG 1.1//EN" "http://www.w3.org/Graphics/SVG/1.1/DTD/svg11.dtd"><svg t="1535702417482" class="icon" style="" viewBox="0 0 1024 1024" version="1.1" xmlns="http://www.w3.org/2000/svg" p-id="3711" xmlns:xlink="http://www.w3.org/1999/xlink" width="48" height="48"><defs><style type="text/css"></style></defs><path d="M507.64 0h8.69c6.85 0.71 13.76 0.52 20.64 0.77 39.23 2.08 78.27 8.3 116.02 19.24 76.94 21.98 148.53 62.38 207.07 116.92 49.52 45.91 89.84 101.73 117.78 163.22 24.13 52.89 39.07 109.92 44.02 167.85-7.08 4.9-15.35 11.17-24.47 8.61-8.2-2.67-15.52-7.49-22.39-12.58-11.14-8.42-20.91-18.44-30.51-28.52-35.98-36.84-68.98-76.42-103.27-114.79-5.9-6.43-11.49-13.14-17.7-19.28-5.74-5.6-10.42-12.17-16.01-17.92-15.25-16.09-30.18-32.49-45.89-48.14-11.2-10.8-21.96-22.04-33.08-32.92-15.54-15.5-32.28-29.72-48.8-44.16-5.34-4.74-11.14-8.91-16.64-13.47-7.48-6.54-15.62-12.28-23.21-18.69-27.74-20.55-56.48-39.96-87.31-55.62-29.45-14.86-60.76-26.66-93.42-31.93-20.14-3.85-40.75-3.25-61.15-3.07-10.57-0.2-21.1 0.95-31.63 1.56-18.95 2.43-37.98 4.51-56.65 8.62-2.44 0.56-4.94 0.16-7.34-0.37C360.93 18.56 424.75 3.55 489.02 0.74 495.23 0.53 501.45 0.6 507.64 0zM133.68 167.48c14.01-2.12 28.13-3.95 42.33-4.08 13.99 0.14 28.03-0.56 41.96 1.01 51.1 4.28 101.1 17.91 148.49 37.22 10.98 3.68 21.15 9.26 31.75 13.86 5.69 2.62 11.4 5.24 16.91 8.24 22.14 10.84 44.15 22.03 65.12 35.01 18.23 10.59 36.25 21.53 53.79 33.23 29.39 18.94 57.97 39.13 86.12 59.86 16.7 12.61 33.89 24.6 50.07 37.88 20.37 15.23 40.55 30.7 60.3 46.72 37.55 28.52 73.97 58.53 112.62 85.57 11.44 8.71 23.62 16.36 35.66 24.2 12.45 8.16 25.56 15.29 38.9 21.89 14 6.42 28.6 12.03 43.96 14.02 9.9 0.79 19.89-1.48 28.91-5.53 11.84-4.97 22.11-12.95 31.39-21.7-2.45 28.72-7.12 57.3-14.64 85.13-4.45 5.68-8.3 11.81-13.11 17.2-6.26 7.73-13.94 14.12-21.51 20.5-14.15 11.05-30.98 18.37-48.3 22.78-14.18 3.6-28.94 3.3-43.44 2.7-38.98-3.86-76.52-16.17-112.68-30.73-15.56-7.47-31.57-13.95-47.03-21.61-14.72-6.79-28.87-14.72-43.35-21.98-19.17-10.86-38.76-20.96-57.95-31.79-16.5-9.12-32.8-18.59-49.22-27.84-16.1-9.29-32.49-18.06-48.52-27.45-17.54-10.34-35.53-19.86-53.39-29.59-16.65-9.18-33.59-17.81-50.48-26.53-16.08-8.52-32.48-16.39-49.04-23.91-16.84-7.79-33.8-15.33-51.08-22.08-16.18-7.57-33.28-12.83-50.13-18.66-43.58-14.55-89.07-24.21-135.09-25.49-13.59-0.4-27.24 0.54-40.46 3.79-15.89 3.32-31.25 9.44-44.79 18.42-13.61 8.42-24.67 20.51-32.77 34.23-5.73 9.91-9.65 20.7-13.93 31.28 6.04-116.33 53.94-229.93 132.63-315.77zM82.06 629.75c15.22-2.81 30.66-0.21 45.98-0.03 47.91 3.57 95.19 14.09 140.6 29.69 18.47 5.89 36.3 13.54 54.3 20.68 25.73 10.93 51.24 22.36 76.38 34.56 19.23 9.99 39.1 18.69 58.34 28.67 8.62 3.88 17.12 7.99 25.58 12.21 34.4 15.83 69 31.43 104.92 43.54 18.61 7.24 37.95 12.36 57.23 17.48 31.3 7.98 63.37 12.82 95.61 14.69 14.66 0.1 29.33-0.11 44 0.04 10.67 0.2 21.26-1.46 31.87-2.42 33.74-4.13 66.8-13.17 98.28-25.93 8.24-3.36 16.02-7.78 24.49-10.57-25.9 40.39-57.91 76.9-94.68 107.73-19.95 7.84-40.76 13.27-61.57 18.26-35.95 7.6-72.63 12.29-109.4 12.11-26.95 0.48-53.88-1.39-80.61-4.71-27.39-2.91-54.45-8.4-81.16-15.03-15.82-4.17-31.55-8.77-46.95-14.31-15.13-5.88-30.39-11.44-45.64-17-18.2-7-36.57-14.11-55.89-17.32-14.68-2.67-30.1-1.72-44.12 3.53-17.33 5.67-31.9 17.67-43.23 31.7-11.92 16.88-20.08 37.14-19.98 58.01C154.26 896.7 73.35 801.66 32.77 690.99c-0.93-6.37 1.91-12.39 4.33-18.1 5.27-10.99 11.54-21.85 20.78-30.01 6.95-6.02 14.9-11.63 24.18-13.13z" fill="#E2E2E2" p-id="3712"></path><path d="M366.38 37.08c10.53-0.61 21.06-1.76 31.63-1.56 20.4-0.18 41.01-0.78 61.15 3.07 32.66 5.27 63.97 17.07 93.42 31.93 30.83 15.66 59.57 35.07 87.31 55.62 7.59 6.41 15.73 12.15 23.21 18.69 5.5 4.56 11.3 8.73 16.64 13.47 16.52 14.44 33.26 28.66 48.8 44.16 11.12 10.88 21.88 22.12 33.08 32.92 15.71 15.65 30.64 32.05 45.89 48.14 5.59 5.75 10.27 12.32 16.01 17.92 6.21 6.14 11.8 12.85 17.7 19.28 34.29 38.37 67.29 77.95 103.27 114.79 9.6 10.08 19.37 20.1 30.51 28.52 6.87 5.09 14.19 9.91 22.39 12.58 9.12 2.56 17.39-3.71 24.47-8.61 2.32 28.9 2.37 57.98 0.1 86.88-9.28 8.75-19.55 16.73-31.39 21.7-9.02 4.05-19.01 6.32-28.91 5.53-15.36-1.99-29.96-7.6-43.96-14.02-13.34-6.6-26.45-13.73-38.9-21.89-12.04-7.84-24.22-15.49-35.66-24.2-38.65-27.04-75.07-57.05-112.62-85.57-19.75-16.02-39.93-31.49-60.3-46.72-16.18-13.28-33.37-25.27-50.07-37.88-28.15-20.73-56.73-40.92-86.12-59.86-17.54-11.7-35.56-22.64-53.79-33.23-20.97-12.98-42.98-24.17-65.12-35.01-5.51-3-11.22-5.62-16.91-8.24-10.6-4.6-20.77-10.18-31.75-13.86-47.39-19.31-97.39-32.94-148.49-37.22-13.93-1.57-27.97-0.87-41.96-1.01-14.2 0.13-28.32 1.96-42.33 4.08 4.57-4.36 8.7-9.17 13.11-13.7 44.25-45.71 97.55-82.49 155.6-108.45 2.4 0.53 4.9 0.93 7.34 0.37 18.67-4.11 37.7-6.19 56.65-8.62zM92.54 399.32c13.22-3.25 26.87-4.19 40.46-3.79 46.02 1.28 91.51 10.94 135.09 25.49 16.85 5.83 33.95 11.09 50.13 18.66 17.28 6.75 34.24 14.29 51.08 22.08 16.56 7.52 32.96 15.39 49.04 23.91 16.89 8.72 33.83 17.35 50.48 26.53 17.86 9.73 35.85 19.25 53.39 29.59 16.03 9.39 32.42 18.16 48.52 27.45 16.42 9.25 32.72 18.72 49.22 27.84 19.19 10.83 38.78 20.93 57.95 31.79 14.48 7.26 28.63 15.19 43.35 21.98 15.46 7.66 31.47 14.14 47.03 21.61 36.16 14.56 73.7 26.87 112.68 30.73 14.5 0.6 29.26 0.9 43.44-2.7 17.32-4.41 34.15-11.73 48.3-22.78 7.57-6.38 15.25-12.77 21.51-20.5 4.81-5.39 8.66-11.52 13.11-17.2-1.55 6.46-3.34 12.86-5.15 19.25-11.76 38.33-27.77 75.37-47.86 110.06-4.57 7.87-9.11 15.81-14.67 23.04-8.47 2.79-16.25 7.21-24.49 10.57-31.48 12.76-64.54 21.8-98.28 25.93-10.61 0.96-21.2 2.62-31.87 2.42-14.67-0.15-29.34 0.06-44-0.04-32.24-1.87-64.31-6.71-95.61-14.69-19.28-5.12-38.62-10.24-57.23-17.48-35.92-12.11-70.52-27.71-104.92-43.54-8.46-4.22-16.96-8.33-25.58-12.21-19.24-9.98-39.11-18.68-58.34-28.67-25.14-12.2-50.65-23.63-76.38-34.56-18-7.14-35.83-14.79-54.3-20.68-45.41-15.6-92.69-26.12-140.6-29.69-15.32-0.18-30.76-2.78-45.98 0.03-9.28 1.5-17.23 7.11-24.18 13.13-9.24 8.16-15.51 19.02-20.78 30.01-2.42 5.71-5.26 11.73-4.33 18.1C7.48 625.06-2.73 553.66 1.05 483.25c4.28-10.58 8.2-21.37 13.93-31.28 8.1-13.72 19.16-25.81 32.77-34.23 13.54-8.98 28.9-15.1 44.79-18.42zM319.62 865.62c14.02-5.25 29.44-6.2 44.12-3.53 19.32 3.21 37.69 10.32 55.89 17.32 15.25 5.56 30.51 11.12 45.64 17 15.4 5.54 31.13 10.14 46.95 14.31 26.71 6.63 53.77 12.12 81.16 15.03 26.73 3.32 53.66 5.19 80.61 4.71 36.77 0.18 73.45-4.51 109.4-12.11 20.81-4.99 41.62-10.42 61.57-18.26-39.35 34.29-84.23 62.24-132.29 82.6-88.17 37.94-187.24 49.78-281.94 34.56-61.26-9.69-120.6-31-174.32-61.92-0.1-20.87 8.06-41.13 19.98-58.01 11.33-14.03 25.9-26.03 43.23-31.7z" fill="#4884EC" p-id="3713"></path></svg>